HIERARCHY
ROOT hip
{
  OFFSET 0 0 0
  CHANNELS 6 Xposition Yposition Zposition Zrotation Yrotation Xrotation
  JOINT abdomen
  {
    OFFSET 0 20.6881 -0.73152
    CHANNELS 3 Zrotation Xrotation Yrotation
    JOINT chest
    {
      OFFSET 0 11.7043 -0.48768
      CHANNELS 3 Zrotation Xrotation Yrotation
      JOINT neck
      {
        OFFSET 0 22.1894 -2.19456
        CHANNELS 3 Zrotation Xrotation Yrotation
        JOINT head
        {
          OFFSET -0.24384 7.07133 1.2192
          CHANNELS 3 Zrotation Xrotation Yrotation
          JOINT leftEye
          {
            OFFSET 4.14528 8.04674 8.04672
            CHANNELS 3 Zrotation Xrotation Yrotation
            End Site
            {
              OFFSET 1 0 0
            }
          }
          JOINT rightEye
          {
            OFFSET -3.6576 8.04674 8.04672
            CHANNELS 3 Zrotation Xrotation Yrotation
            End Site
            {
              OFFSET 1 0 0
            }
          }
        }
      }
      JOINT rCollar
      {
        OFFSET -2.68224 19.2634 -4.8768
        CHANNELS 3 Zrotation Xrotation Yrotation
        JOINT rShldr
        {
          OFFSET -8.77824 -1.95073 1.46304
          CHANNELS 3 Zrotation Xrotation Yrotation
          JOINT rForeArm
          {
            OFFSET -28.1742 -1.7115 0.48768
            CHANNELS 3 Zrotation Xrotation Yrotation
            JOINT rHand
            {
              OFFSET -22.5879 0.773209 7.07136
              CHANNELS 3 Zrotation Xrotation Yrotation
              JOINT rThumb1
              {
                OFFSET -1.2192 -0.487915 3.41376
                CHANNELS 3 Zrotation Xrotation Yrotation
                JOINT rThumb2
                {
                  OFFSET -3.37035 -0.52449 3.41376
                  CHANNELS 3 Zrotation Xrotation Yrotation
                  End Site
                  {
                    OFFSET -1.78271 -1.18214 1.43049
                  }
                }
              }
              JOINT rIndex1
              {
                OFFSET -7.75947 0.938293 5.60832
                CHANNELS 3 Zrotation Xrotation Yrotation
                JOINT rIndex2
                {
                  OFFSET -2.54057 -0.884171 1.56538
                  CHANNELS 3 Zrotation Xrotation Yrotation
                  End Site
                  {
                    OFFSET -1.62519 -0.234802 1.16502
                  }
                }
              }
              JOINT rMid1
              {
                OFFSET -8.24714 1.18213 3.41376
                CHANNELS 3 Zrotation Xrotation Yrotation
                JOINT rMid2
                {
                  OFFSET -3.10165 -0.590103 1.0647
                  CHANNELS 3 Zrotation Xrotation Yrotation
                  End Site
                  {
                    OFFSET -2.48547 -0.328903 0.83742
                  }
                }
              }
              JOINT rRing1
              {
                OFFSET -8.82822 0.546677 1.51678
                CHANNELS 3 Zrotation Xrotation Yrotation
                JOINT rRing2
                {
                  OFFSET -2.60934 -0.819778 -0.0198488
                  CHANNELS 3 Zrotation Xrotation Yrotation
                  End Site
                  {
                    OFFSET -2.33842 -0.294052 0.168128
                  }
                }
              }
              JOINT rPinky1
              {
                OFFSET -8.27202 -0.0477905 -0.4584
                CHANNELS 3 Zrotation Xrotation Yrotation
                JOINT rPinky2
                {
                  OFFSET -1.82734 -0.647385 -0.700984
                  CHANNELS 3 Zrotation Xrotation Yrotation
                  End Site
                  {
                    OFFSET -1.69225 -0.51767 -0.607171
                  }
                }
              }
            }
          }
        }
      }
      JOINT lCollar
      {
        OFFSET 2.68224 19.2634 -4.8768
        CHANNELS 3 Zrotation Xrotation Yrotation
        JOINT lShldr
        {
          OFFSET 8.77824 -1.95073 1.46304
          CHANNELS 3 Zrotation Xrotation Yrotation
          JOINT lForeArm
          {
            OFFSET 28.1742 -1.7115 0.48768
            CHANNELS 3 Zrotation Xrotation Yrotation
            JOINT lHand
            {
              OFFSET 22.5879 0.773209 7.07136
              CHANNELS 3 Zrotation Xrotation Yrotation
              JOINT lThumb1
              {
                OFFSET 1.2192 -0.487915 3.41376
                CHANNELS 3 Zrotation Xrotation Yrotation
                JOINT lThumb2
                {
                  OFFSET 3.37035 -0.52449 3.41376
                  CHANNELS 3 Zrotation Xrotation Yrotation
                  End Site
                  {
                    OFFSET 1.78271 -1.18214 1.43049
                  }
                }
              }
              JOINT lIndex1
              {
                OFFSET 7.75947 0.938293 5.60832
                CHANNELS 3 Zrotation Xrotation Yrotation
                JOINT lIndex2
                {
                  OFFSET 2.54057 -0.884171 1.56538
                  CHANNELS 3 Zrotation Xrotation Yrotation
                  End Site
                  {
                    OFFSET 1.62519 -0.234802 1.16502
                  }
                }
              }
              JOINT lMid1
              {
                OFFSET 8.24714 1.18213 3.41376
                CHANNELS 3 Zrotation Xrotation Yrotation
                JOINT lMid2
                {
                  OFFSET 3.10165 -0.590103 1.0647
                  CHANNELS 3 Zrotation Xrotation Yrotation
                  End Site
                  {
                    OFFSET 2.48547 -0.328903 0.83742
                  }
                }
              }
              JOINT lRing1
              {
                OFFSET 8.82822 0.546677 1.51678
                CHANNELS 3 Zrotation Xrotation Yrotation
                JOINT lRing2
                {
                  OFFSET 2.60934 -0.819778 -0.0198488
                  CHANNELS 3 Zrotation Xrotation Yrotation
                  End Site
                  {
                    OFFSET 2.33842 -0.294052 0.168128
                  }
                }
              }
              JOINT lPinky1
              {
                OFFSET 8.27202 -0.0477905 -0.4584
                CHANNELS 3 Zrotation Xrotation Yrotation
                JOINT lPinky2
                {
                  OFFSET 1.82734 -0.647385 -0.700984
                  CHANNELS 3 Zrotation Xrotation Yrotation
                  End Site
                  {
                    OFFSET 1.69225 -0.51767 -0.607171
                  }
                }
              }
            }
          }
        }
      }
    }
  }
  JOINT rButtock
  {
    OFFSET -8.77824 4.35084 1.2192
    CHANNELS 3 Zrotation Xrotation Yrotation
    JOINT rThigh
    {
      OFFSET 0 -1.70687 -2.19456
      CHANNELS 3 Zrotation Xrotation Yrotation
      JOINT rShin
      {
        OFFSET 0 -36.8199 0.73152
        CHANNELS 3 Zrotation Xrotation Yrotation
        JOINT rFoot
        {
          OFFSET 0.73152 -45.1104 -5.12064
          CHANNELS 3 Zrotation Xrotation Yrotation
          End Site
          {
            OFFSET -1.1221 -3.69964 12.103
          }
        }
      }
    }
  }
  JOINT lButtock
  {
    OFFSET 8.77824 4.35084 1.2192
    CHANNELS 3 Zrotation Xrotation Yrotation
    JOINT lThigh
    {
      OFFSET 0 -1.70687 -2.19456
      CHANNELS 3 Zrotation Xrotation Yrotation
      JOINT lShin
      {
        OFFSET 0 -36.8199 0.73152
        CHANNELS 3 Zrotation Xrotation Yrotation
        JOINT lFoot
        {
          OFFSET -0.73152 -45.1104 -5.12064
          CHANNELS 3 Zrotation Xrotation Yrotation
          End Site
          {
            OFFSET 1.1221 -3.69964 12.103
          }
        }
      }
    }
  }
}
MOTION
Frames:	7
Frame Time:	0.00833333
280.525 84.6779 25.2663 371.001 -7.2849 352.239 -17.7761 4.78632 6.75859 2.60377 -2.4067 1.65073 3.71301 -5.61239 1.02864 -1.65467 3.61492 0.706819 -0.0 0.0 0.0 -0.0 0.0 0.0 6.71356e-14 -5.01195e-14 -2.37681e-13 85.6441 25.4111 -11.5035 -12.7774 -6.00937 23.1243 -0.112581 9.54879 1.35459 -5.46534e-10 -3.61732e-11 -8.42015e-10 -9.50184e-10 -6.16518e-11 -1.45225e-09 -5.4653e-10 -3.61748e-11 -8.42021e-10 7.73091 5.47488 0.417314 -5.46532e-10 -3.61748e-11 -8.42007e-10 2.90554 0.965183 0.102902 -5.46531e-10 -3.61763e-11 -8.42014e-10 10.2786 0.731801 0.0259123 -5.46543e-10 -3.61748e-11 -8.41999e-10 2.22167 -0.733487 -0.20892 6.71416e-14 -5.01174e-14 -2.37983e-13 -72.0139 36.5908 -5.0663 15.3396 -8.08831 -28.2893 0.0259924 4.61268 -0.649677 -4.57393e-10 -9.86923e-10 -5.01673e-10 -7.95018e-10 -1.70884e-09 -8.61961e-10 -4.57405e-10 -9.86928e-10 -5.01664e-10 -7.73091 5.47488 -0.417314 -4.57394e-10 -9.86927e-10 -5.01671e-10 -2.90554 0.965183 -0.102902 -4.57402e-10 -9.86927e-10 -5.01672e-10 -10.2786 0.731801 -0.0259123 -4.57393e-10 -9.86929e-10 -5.01684e-10 -2.22167 -0.733487 0.20892 -2.03217e-16 0.0 -3.88251e-19 -19.1288 1.4856 -2.00768 -0.925673 57.4591 1.32903 -0.330749 5.7158 -3.99547 2.03217e-16 0.0 3.88251e-19 -12.1789 2.97415 9.0997 0.0355785 5.79247 0.182012 0.71537 -4.07519 2.05872
280.651 84.668 25.8051 371.249 -7.0839 352.275 -18.1041 4.91275 6.33885 2.71205 -2.26593 1.51617 4.01094 -5.65938 1.26321 -1.92597 3.56771 1.06567 -0.0 0.0 0.0 -0.0 0.0 0.0 -1.13861e-14 -1.90719e-13 -3.65742e-13 85.752 24.661 -11.7051 -12.6925 -5.94646 22.958 -0.122899 9.95811 1.41388 -9.73773e-11 -1.33788e-09 5.18402e-10 -1.6345e-10 -2.31698e-09 8.96385e-10 -9.73741e-11 -1.33787e-09 5.18398e-10 7.73091 5.47488 0.417314 -9.73788e-11 -1.33788e-09 5.18403e-10 2.90554 0.965183 0.102902 -9.73747e-11 -1.33788e-09 5.184e-10 10.2786 0.731801 0.0259123 -9.73844e-11 -1.33788e-09 5.18412e-10 2.22167 -0.733487 -0.20892 -1.12909e-14 -1.90717e-13 -3.65988e-13 -71.239 37.033 -5.95643 15.5354 -8.26299 -28.6968 0.0211612 4.16345 -0.586165 1.24316e-09 1.13723e-09 -5.0431e-10 2.14327e-09 1.95166e-09 -8.76092e-10 1.24315e-09 1.13722e-09 -5.04296e-10 -7.73091 5.47488 -0.417314 1.24316e-09 1.13722e-09 -5.04311e-10 -2.90554 0.965183 -0.102902 1.24316e-09 1.13722e-09 -5.0431e-10 -10.2786 0.731801 -0.0259123 1.24317e-09 1.13722e-09 -5.0432e-10 -2.22167 -0.733487 0.20892 -2.03217e-16 0.0 -3.88251e-19 -19.4699 0.29071 -2.32968 -0.972659 58.3026 1.37711 -0.370759 5.18842 -3.9922 2.03217e-16 0.0 3.88251e-19 -12.6302 3.44891 9.12485 0.0346759 5.77456 0.179322 0.713626 -4.36323 1.99158
280.706 84.7776 26.4635 371.52 -7.0059 352.024 -18.3779 5.03462 5.90872 2.84687 -2.15611 1.38161 4.2667 -5.69061 1.47919 -2.20351 3.55546 1.40515 -0.0 0.0 0.0 -0.0 0.0 0.0 -4.38784e-14 -2.67564e-13 -4.40805e-13 85.829 24.0454 -11.946 -12.6511 -5.91574 22.8772 -0.12799 10.1478 1.44143 5.50284e-11 -2.09255e-09 1.27338e-09 1.05921e-10 -3.62477e-09 2.20077e-09 5.50311e-11 -2.09254e-09 1.27338e-09 7.73091 5.47488 0.417314 5.50242e-11 -2.09255e-09 1.27338e-09 2.90554 0.965183 0.102902 5.50309e-11 -2.09255e-09 1.27338e-09 10.2786 0.731801 0.0259123 5.50222e-11 -2.09255e-09 1.27339e-09 2.22167 -0.733487 -0.20892 -4.37388e-14 -2.67563e-13 -4.41004e-13 -70.5302 37.403 -6.79677 15.7197 -8.42941 -29.0832 0.0172333 3.74514 -0.527104 2.13108e-09 2.10765e-09 -5.63508e-10 3.67722e-09 3.62278e-09 -9.83824e-10 2.13107e-09 2.10765e-09 -5.63493e-10 -7.73091 5.47488 -0.417314 2.13108e-09 2.10765e-09 -5.63512e-10 -2.90554 0.965183 -0.102902 2.13108e-09 2.10765e-09 -5.63508e-10 -10.2786 0.731801 -0.0259123 2.13109e-09 2.10765e-09 -5.63518e-10 -2.22167 -0.733487 0.20892 -2.03217e-16 0.0 -3.88251e-19 -19.7842 -0.918792 -2.67364 -1.01458 59.0217 1.42124 -0.415164 4.59277 -3.86793 2.03217e-16 0.0 3.88251e-19 -13.0328 3.90774 9.10158 0.03368 5.75962 0.173995 0.717112 -4.67217 1.96532
280.809 84.835 27.0596 371.701 -6.9342 351.909 -18.6041 5.1493 5.45488 3.01768 -2.08906 1.24372 4.45625 -5.70316 1.67057 -2.48698 3.60722 1.723 -0.0 0.0 0.0 -0.0 0.0 0.0 3.80968e-15 -2.42055e-13 -4.46209e-13 85.8517 23.5894 -12.2228 -12.6482 -5.91279 22.8733 -0.125756 10.0548 1.42796 -3.18747e-10 -2.01555e-09 1.02506e-09 -5.41344e-10 -3.49205e-09 1.77495e-09 -3.18743e-10 -2.01555e-09 1.02506e-09 7.73091 5.47488 0.417314 -3.18751e-10 -2.01555e-09 1.02506e-09 2.90554 0.965183 0.102902 -3.18744e-10 -2.01555e-09 1.02506e-09 10.2786 0.731801 0.0259123 -3.18753e-10 -2.01555e-09 1.02507e-09 2.22167 -0.733487 -0.20892 3.92259e-15 -2.42053e-13 -4.46362e-13 -69.9291 37.677 -7.55359 15.8925 -8.58753 -29.4464 0.0139633 3.36182 -0.473032 1.73696e-09 1.16101e-09 -7.57502e-10 2.99557e-09 1.98763e-09 -1.31819e-09 1.73695e-09 1.16101e-09 -7.57488e-10 -7.73091 5.47488 -0.417314 1.73696e-09 1.16101e-09 -7.57505e-10 -2.90554 0.965183 -0.102902 1.73696e-09 1.16101e-09 -7.57503e-10 -10.2786 0.731801 -0.0259123 1.73697e-09 1.16101e-09 -7.57513e-10 -2.22167 -0.733487 0.20892 -2.03217e-16 0.0 -3.88251e-19 -20.1179 -2.15481 -3.07593 -1.0509 59.6242 1.46158 -0.459124 3.91395 -3.53042 2.03217e-16 0.0 3.88251e-19 -13.4027 4.34516 9.02011 0.0325109 5.75049 0.165722 0.72706 -4.99913 1.9858
280.899 84.9183 27.694 371.805 -6.9567 351.77 -18.7682 5.2596 4.97132 3.20791 -2.04628 1.09999 4.60749 -5.70792 1.84866 -2.7865 3.70842 2.03065 -0.0 0.0 0.0 -0.0 0.0 0.0 1.0078e-13 -1.54282e-13 -4.04859e-13 85.8317 23.2322 -12.5128 -12.6712 -5.9284 22.9208 -0.119022 9.77903 1.38803 -1.04976e-09 -1.42127e-09 1.80993e-10 -1.81033e-09 -2.46355e-09 3.22138e-10 -1.04976e-09 -1.42127e-09 1.80987e-10 7.73091 5.47488 0.417314 -1.04976e-09 -1.42128e-09 1.80987e-10 2.90554 0.965183 0.102902 -1.04976e-09 -1.42128e-09 1.80987e-10 10.2786 0.731801 0.0259123 -1.04977e-09 -1.42128e-09 1.80999e-10 2.22167 -0.733487 -0.20892 1.00822e-13 -1.54281e-13 -4.04962e-13 -69.3995 37.8819 -8.25245 16.0572 -8.74044 -29.7934 0.0111013 3.00267 -0.422395 5.50117e-10 -9.96623e-10 -1.04314e-09 9.43923e-10 -1.73624e-09 -1.8071e-09 5.50108e-10 -9.96623e-10 -1.04313e-09 -7.73091 5.47488 -0.417314 5.50117e-10 -9.96624e-10 -1.04314e-09 -2.90554 0.965183 -0.102902 5.50108e-10 -9.96626e-10 -1.04314e-09 -10.2786 0.731801 -0.0259123 5.50123e-10 -9.96626e-10 -1.04315e-09 -2.22167 -0.733487 0.20892 -2.03217e-16 0.0 -3.88251e-19 -20.4329 -3.40489 -3.51353 -1.08037 60.1018 1.49616 -0.492234 3.21271 -3.04601 2.03217e-16 0.0 3.88251e-19 -13.7243 4.76968 8.90077 0.0310438 5.73956 0.154655 0.741611 -5.33189 2.0358
280.925 84.8858 28.189 371.818 -6.7744 351.863 -18.8666 5.36914 4.49248 3.40791 -2.01514 0.959791 4.75292 -5.7034 2.01843 -3.0975 3.80461 2.32476 -0.0 0.0 0.0 -0.0 0.0 0.0 1.93366e-13 -6.103e-14 -3.37066e-13 85.8163 22.9616 -12.8395 -12.7409 -5.97976 23.0577 -0.109633 9.38755 1.33143 -1.7485e-09 -7.1435e-10 -6.69317e-10 -3.02386e-09 -1.23994e-09 -1.14171e-09 -1.7485e-09 -7.14352e-10 -6.69325e-10 7.73091 5.47488 0.417314 -1.7485e-09 -7.14357e-10 -6.69323e-10 2.90554 0.965183 0.102902 -1.7485e-09 -7.14356e-10 -6.69324e-10 10.2786 0.731801 0.0259123 -1.74851e-09 -7.14354e-10 -6.6931e-10 2.22167 -0.733487 -0.20892 1.93333e-13 -6.10303e-14 -3.37129e-13 -68.8927 38.0559 -8.93888 16.213 -8.8868 -30.1231 0.00869164 2.66667 -0.375048 -7.40294e-10 -3.17727e-09 -1.27676e-09 -1.28656e-09 -5.49897e-09 -2.20531e-09 -7.40301e-10 -3.17727e-09 -1.27675e-09 -7.73091 5.47488 -0.417314 -7.40295e-10 -3.17727e-09 -1.27676e-09 -2.90554 0.965183 -0.102902 -7.40305e-10 -3.17728e-09 -1.27676e-09 -10.2786 0.731801 -0.0259123 -7.40287e-10 -3.17728e-09 -1.27677e-09 -2.22167 -0.733487 0.20892 -2.03217e-16 0.0 -3.88251e-19 -20.66 -4.65068 -3.92413 -1.10178 60.4434 1.52283 -0.515725 2.47573 -2.57395 2.03217e-16 0.0 3.88251e-19 -13.9695 5.18786 8.74981 0.0295463 5.72615 0.141375 0.76191 -5.68603 2.1153
280.95 84.9221 28.7739 371.89 -6.6211 351.798 -18.8957 5.48165 4.05279 3.60812 -1.98297 0.832474 4.92505 -5.68809 2.18486 -3.41424 3.84142 2.60186 -0.0 0.0 0.0 -0.0 0.0 0.0 2.27903e-13 -1.90827e-14 -2.63141e-13 85.8525 22.765 -13.2259 -12.8779 -6.08372 23.3226 -0.0992029 8.94734 1.26789 -2.02547e-09 -2.99427e-10 -9.36346e-10 -3.50476e-09 -5.21881e-10 -1.60064e-09 -2.02546e-09 -2.99429e-10 -9.36355e-10 7.73091 5.47488 0.417314 -2.02547e-09 -2.99434e-10 -9.36352e-10 2.90554 0.965183 0.102902 -2.02546e-09 -2.99433e-10 -9.36353e-10 10.2786 0.731801 0.0259123 -2.02548e-09 -2.99431e-10 -9.36339e-10 2.22167 -0.733487 -0.20892 2.27826e-13 -1.90845e-14 -2.63191e-13 -68.3569 38.2357 -9.66042 16.3592 -9.0253 -30.4347 0.00679387 2.35277 -0.330847 -1.44511e-09 -4.19297e-09 -1.31469e-09 -2.50472e-09 -7.25069e-09 -2.26754e-09 -1.44511e-09 -4.19297e-09 -1.31469e-09 -7.73091 5.47488 -0.417314 -1.44511e-09 -4.19297e-09 -1.31469e-09 -2.90554 0.965183 -0.102902 -1.44512e-09 -4.19297e-09 -1.3147e-09 -10.2786 0.731801 -0.0259123 -1.4451e-09 -4.19297e-09 -1.31471e-09 -2.22167 -0.733487 0.20892 -2.03217e-16 0.0 -3.88251e-19 -20.724 -5.87433 -4.24491 -1.11398 60.638 1.53953 -0.538521 1.6904 -2.27308 2.03217e-16 0.0 3.88251e-19 -14.1101 5.60621 8.57353 0.0282857 5.70961 0.126461 0.789243 -6.07713 2.22434
